<svg xmlns="http://www.w3.org/2000/svg" width="28" height="28" viewBox="0 0 28 28">
    <path fill="#FFF" fill-rule="evenodd" d="M21.857 11.816c-3.218-7.206-4.892-9.944-10.15-9.83-1.874.04-1.425-1.412-2.854-.861-1.425.55-.202 1.357-1.661 2.604-4.097 3.5-3.72 6.736-1.82 14.45.8 3.25-1.93 3.41-.85 6.558.79 2.297 6.605 3.259 12.74.891 6.135-2.367 10.003-7.07 9.214-9.366-1.08-3.15-3.262-1.412-4.619-4.446zm-5.26 11.87c-5.48 2.116-9.983.873-10.173.32-.328-.955 1.769-4.136 8.034-6.555 6.264-2.419 9.761-1.521 10.127-.457.216.63-2.506 4.577-7.987 6.693zm-1.761-5.13c-2.864 1.105-4.855 2.37-6.145 3.508.908.858 2.607 1.066 4.3.413 2.155-.83 3.48-2.74 2.957-4.265-.007-.02-.015-.034-.022-.053-.355.12-.717.251-1.09.397z"/>
</svg>
